# xmcd
#
# Track frame offsets: 
#        150
#        23481
#        32598
#        50240
#        70724
#        85576
#        109761
#        127234
#        142894
#        161110
#        181198
#        191389
#        209585
#        217046
#        234860
#        242518
#        260035
#        273781
#        299681
#        330410
#
# Disc length: 4677 seconds
#
# Revision: 0
# Processed by: cddbd v1.5.2PL0 Copyright (c) Steve Scherf et al.
# Submitted via: ExactAudioCopyFreeDBPlugin 1.0
#
DISCID=23124314
DTITLE=Kanye West - Freshmen Adjustment 3
DYEAR=2007
DGENRE=Rap
TTITLE0=Jesus Walks (Remix) Feat. Mase and Common
TTITLE1=Hold On (Remix) Feat. Dwele
TTITLE2=Fly Away Feat. Miri Ben-Ari, Fabolous and Musiq
TTITLE3=Gold Digger (Live On SNL)
TTITLE4=Behind Us Feat. Ludacris and The Game
TTITLE5=What You Do To Me Feat. Infamous Syndicate
TTITLE6=We Can Make It Better Feat. Talib, Q-Tip, Common and Rhymefest
TTITLE7=All Falls Down (Live)
TTITLE8=New Workout Plan (Remix) Feat. Luke, Twista and Farnsworth
TTITLE9=U Know Feat. Whiteboy and B-Lo
TTITLE10=Drop Dead Gorgeous (Revised) Feat. Murphy Lee
TTITLE11=Back Like That (Remix) Feat. Ghostface and Ne-Yo
TTITLE12=Back To Basics Feat. Common
TTITLE13=Heard `Em Say (Live On SNL)
TTITLE14=Crack Music (Poetry Style)
TTITLE15=You Feat. Mela
TTITLE16=Take It As A Loss Feat. Consequence
TTITLE17=Get By (Remix) Feat. Mos Def, Jay-Z, Busta and Talib
TTITLE18=Everything I Got Feat. Termanology
TTITLE19=Throw Some D's (Remix)
EXTD=
EXTT0=
EXTT1=
EXTT2=
EXTT3=
EXTT4=
EXTT5=
EXTT6=
EXTT7=
EXTT8=
EXTT9=
EXTT10=
EXTT11=
EXTT12=
EXTT13=
EXTT14=
EXTT15=
EXTT16=
EXTT17=
EXTT18=
EXTT19=
PLAYORDER=
